<?xml version="1.0" encoding="UTF-8"?>
<svg xmlns="http://www.w3.org/2000/svg" version="1.1" viewBox="0 0 606.4 608">
  <!-- Generator: Adobe Illustrator 28.7.6, SVG Export Plug-In . SVG Version: 1.2.0 Build 188)  -->
  <g>
    <g id="Layer_1">
      <path d="M304,448c-80,0-144-64-144-144s64-144,144-144,144,64,144,144-64,144-144,144ZM304,192c-62.4,0-112,49.6-112,112s49.6,112,112,112,112-49.6,112-112-49.6-112-112-112Z"/>
      <path d="M347.2,608h-86.4l-24-73.6c-16-4.8-32-11.2-46.4-19.2l-70.4,35.2-60.8-60.8,35.2-70.4c-8-14.4-14.4-30.4-19.2-46.4L0,347.2v-86.4l73.6-24c4.8-16,11.2-32,19.2-46.4l-35.2-70.4,60.8-60.8,70.4,35.2c14.4-8,30.4-14.4,46.4-19.2L260.8,0h86.4l24,73.6c16,4.8,32,11.2,46.4,19.2l70.4-35.2,60.8,60.8-35.2,70.4c8,14.4,14.4,30.4,19.2,46.4l73.6,24v86.4l-73.6,24c-4.8,16-11.2,32-19.2,46.4l35.2,70.4-60.8,60.8-70.4-35.2c-14.4,8-30.4,14.4-46.4,19.2l-24,76.8ZM283.2,576h41.6l22.4-68.8,8-1.6c19.2-4.8,36.8-12.8,54.4-22.4l8-4.8,64,32,28.8-28.8-32-64,4.8-8c9.6-16,17.6-35.2,22.4-54.4l1.6-8,68.8-22.4v-41.6l-68.8-22.4-1.6-8c-4.8-19.2-12.8-36.8-22.4-54.4l-4.8-8,32-64-28.8-28.8-64,32-8-4.8c-17.6-9.6-35.2-17.6-54.4-22.4l-8-1.6-22.4-68.8h-41.6l-22.4,68.8-8,1.6c-19.2,4.8-36.8,12.8-54.4,22.4l-8,4.8-64-32-28.8,28.8,32,64-4.8,8c-9.6,16-17.6,35.2-22.4,54.4l-1.6,8-68.8,22.4v41.6l68.8,22.4,1.6,8c4.8,19.2,12.8,36.8,22.4,54.4l4.8,8-32,64,28.8,28.8,64-32,8,4.8c17.6,9.6,35.2,17.6,54.4,22.4l8,1.6,22.4,68.8h0Z"/>
    </g>
  </g>
</svg>